<svg xmlns="http://www.w3.org/2000/svg" width="24" height="24" viewBox="0 0 24 24"><path d="M.306,8.4A5.267,5.267,0,0,1,4.38,4.658L4.656,4.6a16.792,16.792,0,0,1,6.688,0l.276.056A5.267,5.267,0,0,1,15.694,8.4a8.807,8.807,0,0,1-.347,5.629l-.093.228a5.754,5.754,0,0,1-4.469,3.47l-.749.117a13.186,13.186,0,0,1-4.073,0l-.749-.117a5.754,5.754,0,0,1-4.469-3.47l-.093-.228A8.807,8.807,0,0,1,.306,8.4Z" transform="translate(4 3)" fill="rgba(54,56,83,0.15)" stroke="#363853" stroke-linecap="round" stroke-width="1.5"/><path d="M3.644,4.431v-.3A4.152,4.152,0,0,1,6.852.141a4.738,4.738,0,0,1,2.3,0,4.152,4.152,0,0,1,3.208,3.986v.3" transform="translate(4 3)" fill="rgba(54,56,83,0.15)" stroke="#363853" stroke-linecap="round" stroke-width="1.5"/><path d="M0,0V2" transform="translate(12 13.5)" fill="rgba(54,56,83,0.15)" stroke="#363853" stroke-linecap="round" stroke-width="1.5"/></svg>